<?xml version="1.0" encoding="UTF-8"?>
<svg version="1.1" xmlns="http://www.w3.org/2000/svg" width="300" height="300">
<path d="M0 0 C46.2 0 92.4 0 140 0 C135.99054699 4.67769517 132.0094496 9.13580029 127.66259766 13.46679688 C127.06009689 14.07104996 126.45759613 14.67530304 125.83683777 15.29786682 C123.86506899 17.27399928 121.88970914 19.24649503 119.9140625 21.21875 C118.52918151 22.6043057 117.14444889 23.99000972 115.75985718 25.37585449 C112.86496431 28.27221698 109.96828277 31.16677532 107.0703125 34.06005859 C103.37300025 37.75167938 99.68018902 41.44776481 95.98871803 45.14522552 C93.13193139 48.00564222 90.27274681 50.86365249 87.41285324 53.72096252 C86.05108816 55.08206481 84.69005361 56.44389844 83.32979202 57.8065033 C71.38763078 69.76472015 71.38763078 69.76472015 66.98144531 73.51196289 C61.30660244 78.34272957 56.16028768 83.74776826 50.91833878 89.03706169 C48.91203877 91.06090849 46.90208034 93.08105646 44.89108276 95.10023499 C39.17991093 100.83574185 33.47458711 106.57704117 27.7734375 112.32250977 C24.27361378 115.8490312 20.76900252 119.37073474 17.26134872 122.88946724 C15.92695374 124.23008304 14.59446085 125.57259485 13.26388931 126.91700554 C11.41364405 128.78635092 9.55742744 130.64956215 7.69970703 132.51147461 C7.14907089 133.07087234 6.59843475 133.63027008 6.03111267 134.20661926 C2.22789941 138 2.22789941 138 0 138 C0 92.46 0 46.92 0 0 Z " fill="#A41B37" transform="translate(155,0)"/>
<path d="M0 0 C45.87 0 91.74 0 139 0 C139 45.54 139 91.08 139 138 C135.01959172 136.00979586 132.46385475 133.74183647 129.39385986 130.64109802 C128.8391626 130.08881517 128.28446533 129.53653232 127.71295905 128.96751362 C125.85495848 127.11515019 124.00419427 125.25572255 122.15332031 123.39624023 C120.82312006 122.06711283 119.49248698 120.73841847 118.16145325 119.41012573 C114.54770578 115.80122814 110.94024321 112.18610737 107.33399677 108.56971622 C103.56430399 104.79124922 99.78934958 101.01804582 96.01507568 97.24415588 C89.67997509 90.90811862 83.3487611 84.56821871 77.02001953 78.22583008 C69.69220225 70.88227032 62.35915435 63.54396737 55.02309537 56.20864147 C47.97589742 49.16205274 40.93155569 42.11261636 33.88881683 35.06157112 C30.88639472 32.05560912 27.88311636 29.0505064 24.87918854 26.04604912 C21.34743389 22.51329376 17.81822709 18.97801274 14.29102135 15.44071579 C12.9921687 14.13892984 11.69245582 12.83800156 10.39184761 11.53796959 C8.62497664 9.77158546 6.86118749 8.00218275 5.09820557 6.23191833 C4.57565603 5.7109174 4.05310648 5.18991646 3.51472211 4.65312761 C0 1.11417883 0 1.11417883 0 0 Z " fill="#A51B37" transform="translate(6,0)"/>
<path d="M0 0 C4.42912041 3.79638892 8.67518218 7.52741853 12.77708435 11.63664246 C13.31392713 12.17051411 13.85076991 12.70438577 14.40388066 13.25443536 C16.18102912 15.02299315 17.95466329 16.79503109 19.72827148 18.56713867 C21.00988597 19.84411866 22.29169561 21.1209028 23.57368469 22.39750671 C27.03849427 25.84926327 30.50002268 29.30429133 33.96053958 32.76035094 C36.12251269 34.91938576 38.2850683 37.07783546 40.44780159 39.23610878 C47.21503646 45.98969618 53.98028648 52.74526243 60.74263614 59.50374144 C68.54977192 67.30638342 76.36342753 75.10241858 84.18274635 82.89285105 C90.2305795 88.91911412 96.27268074 94.9510845 102.31040817 100.98747236 C105.91617324 104.59218733 109.52434861 108.19440991 113.13848686 111.79073143 C116.53085984 115.1667015 119.91609477 118.54966507 123.29586601 121.93824959 C124.53975057 123.18290833 125.78622414 124.42498561 127.03540421 125.66432953 C128.73452242 127.35084529 130.42423096 129.0462493 132.11180115 130.74430847 C132.61284959 131.23730051 133.11389803 131.73029254 133.63012975 132.23822373 C137 135.65760503 137 135.65760503 137 139 C91.79 139 46.58 139 0 139 C0 93.13 0 47.26 0 0 Z " fill="#A51B37" transform="translate(0,7)"/>
<path d="M0 0 C45.21 0 90.42 0 137 0 C134.89064592 4.21870815 132.31260029 6.94846339 129.0090332 10.20214844 C128.39575668 10.81411072 127.78248016 11.426073 127.15061951 12.05657959 C125.12189607 14.07881258 123.08629091 16.09397495 121.05078125 18.109375 C119.63500426 19.51887771 118.21974377 20.92889939 116.80497742 22.3394165 C113.07510979 26.05597548 109.33972701 29.76693742 105.60272217 33.47631836 C99.63826622 39.39769759 93.6803876 45.32567396 87.72591209 51.25708771 C85.6528791 53.31997103 83.57642351 55.37936142 81.49958801 57.43841553 C76.13437548 62.76952751 70.83298493 68.0661746 65.93492126 73.83453369 C60.74035986 79.64802488 55.08588703 85.0562833 49.5703125 90.5625 C48.17009119 91.96339572 46.77001829 93.36443979 45.37008667 94.765625 C42.45179574 97.68538301 39.53172147 100.60334229 36.61035156 103.52001953 C32.85742795 107.26720927 29.10906142 111.01892058 25.36198616 114.7719574 C22.47973579 117.65780862 19.59512377 120.54128966 16.70977402 123.42404175 C15.32547385 124.80767324 13.94192052 126.19205235 12.55911636 127.57717896 C10.63702663 129.50179137 8.71179033 131.42319809 6.78564453 133.34375 C5.92388863 134.20854225 5.92388863 134.20854225 5.04472351 135.09080505 C1.11426994 139 1.11426994 139 0 139 C0 93.13 0 47.26 0 0 Z " fill="#A41B37" transform="translate(0,156)"/>
<path d="M0 0 C44.88 0 89.76 0 136 0 C136 45.54 136 91.08 136 138 C131.3549145 134.01849814 126.92524819 130.07065631 122.625 125.75439453 C122.03050049 125.16164734 121.43600098 124.56890015 120.82348633 123.95819092 C118.87981988 122.01888711 116.9397893 120.07599384 115 118.1328125 C113.63686453 116.77035177 112.27358075 115.40803942 110.91015625 114.04586792 C108.06087223 111.19805339 105.21339213 108.34845067 102.3671875 105.49755859 C98.73610071 101.86078045 95.10054968 98.22850354 91.46362305 94.5975666 C88.64952925 91.7871033 85.83784249 88.97424158 83.02685547 86.16067123 C81.68808181 84.8212349 80.34857715 83.48252877 79.00830078 82.1445961 C66.66807397 69.82121706 66.66807397 69.82121706 61.37692261 63.60375977 C59.35827312 61.25255366 57.1928498 59.06315387 55.00390625 56.87109375 C54.11509766 55.98099609 53.22628906 55.09089844 52.31054688 54.17382812 C51.40369141 53.27083984 50.49683594 52.36785156 49.5625 51.4375 C48.65951172 50.53064453 47.75652344 49.62378906 46.82617188 48.68945312 C45.93607422 47.80064453 45.04597656 46.91183594 44.12890625 45.99609375 C42.93890015 44.80777954 42.93890015 44.80777954 41.72485352 43.59545898 C39.57895768 41.55146484 37.40707312 39.60317056 35.16577148 37.66796875 C31.0047879 34.05293188 27.09981808 30.22788604 23.21875 26.31640625 C22.51979614 25.61603745 21.82084229 24.91566864 21.10070801 24.19407654 C18.89808461 21.98591542 16.69898919 19.77427963 14.5 17.5625 C12.99502492 16.05250186 11.48981865 14.5427341 9.984375 13.03320312 C6.32024171 9.35812359 2.6592652 5.67992644 -1 2 C-0.67 1.34 -0.34 0.68 0 0 Z " fill="#A41B37" transform="translate(164,156)"/>
<path d="M0 0 C4.05198571 1.01299643 4.86412908 1.49103534 7.64770508 4.29125977 C8.34555618 4.98610977 9.04340729 5.68095978 9.7624054 6.39686584 C10.50725693 7.15406418 11.25210846 7.91126251 12.01953125 8.69140625 C12.79632736 9.47007553 13.57312347 10.24874481 14.37345886 11.05101013 C16.01851866 12.70279621 17.65997472 14.35817798 19.2980957 16.0168457 C21.7855251 18.53518985 24.28323586 21.04293618 26.78320312 23.54882812 C28.38343228 25.15823816 29.9830607 26.76824577 31.58203125 28.37890625 C32.69019951 29.49344933 32.69019951 29.49344933 33.820755 30.63050842 C37.83533755 34.69962209 41.67826026 38.86253654 45.41340637 43.18904114 C47.58776036 45.67087742 49.88366895 48.01332908 52.21484375 50.34765625 C52.67427872 50.80804794 53.13371368 51.26843964 53.60707092 51.74278259 C54.56616736 52.70255079 55.52649235 53.66109287 56.48803711 54.6184082 C57.93524385 56.06025221 59.37702026 57.50737116 60.81835938 58.95507812 C61.76270044 59.89875823 62.70735174 60.842128 63.65234375 61.78515625 C64.90519165 63.03631226 64.90519165 63.03631226 66.18334961 64.31274414 C68.23752918 66.27255645 70.29391253 68.11526728 72.45141602 69.95141602 C78.98875508 75.63156398 85.01003621 81.86647948 91.125 87.9921875 C92.48105526 89.34756829 93.83725886 90.70280067 95.19360352 92.05789185 C98.01920454 94.88202615 100.84300749 97.70794263 103.66552734 100.53515625 C107.29164835 104.16701236 110.92229207 107.79430908 114.55426025 111.4203167 C117.34746521 114.20992086 120.13829993 117.00188645 122.92840576 119.79459 C124.26737989 121.13423276 125.60710151 122.47312881 126.9475708 123.81127548 C128.80991755 125.67109953 130.6690576 127.53406916 132.52734375 129.39794922 C133.08517044 129.95375168 133.64299713 130.50955414 134.21772766 131.0821991 C138 134.88572975 138 134.88572975 138 136 C92.46 136 46.92 136 0 136 C0 91.12 0 46.24 0 0 Z " fill="#A41B37" transform="translate(155,164)"/>
<path d="M0 0 C0 45.21 0 90.42 0 137 C-45.21 137 -90.42 137 -137 137 C-135.28731318 133.57462635 -134.19744963 131.94846024 -131.59521484 129.35229492 C-130.90044037 128.65444382 -130.20566589 127.95659271 -129.48983765 127.2375946 C-128.36178207 126.12031731 -128.36178207 126.12031731 -127.2109375 124.98046875 C-126.43368317 124.20367264 -125.65642883 123.42687653 -124.85562134 122.62654114 C-123.20868327 120.98262367 -121.55931595 119.34113687 -119.90771484 117.7019043 C-117.40021134 115.21252907 -114.9006744 112.71537425 -112.40234375 110.21679688 C-110.79734353 108.61671739 -109.19188894 107.01709352 -107.5859375 105.41796875 C-106.84604584 104.67918991 -106.10615417 103.94041107 -105.34384155 103.179245 C-104.63015411 102.47193741 -103.91646667 101.76462982 -103.18115234 101.03588867 C-102.2575441 100.11799812 -102.2575441 100.11799812 -101.3152771 99.18156433 C-99.35300764 97.33262061 -97.35336704 95.57194987 -95.31080627 93.81378174 C-90.61579733 89.7251211 -86.23268651 85.35827961 -81.84594727 80.94360352 C-80.968564 80.06475998 -80.09118073 79.18591644 -79.18721008 78.28044128 C-77.29604106 76.38548653 -75.40579485 74.48966397 -73.51709175 72.59225655 C-70.5323243 69.59387022 -67.54365942 66.59938867 -64.5544281 63.60545349 C-58.22079949 57.26077812 -51.89144889 50.91184296 -45.5625 44.5625 C-38.70434781 37.68230969 -31.84544587 30.80287611 -24.98169178 23.92827362 C-22.00754361 20.94913423 -19.03585186 17.96757221 -16.06599915 14.98415101 C-13.79538135 12.70436468 -11.52157807 10.42775899 -9.24829102 8.15063477 C-8.42288818 7.32006561 -7.59748535 6.48949646 -6.74707031 5.63375854 C-5.99998306 4.8866008 -5.25289581 4.13944305 -4.48316956 3.36964417 C-3.83079095 2.71504495 -3.17841234 2.06044573 -2.50626469 1.38601017 C-1 0 -1 0 0 0 Z " fill="#A41B37" transform="translate(300,9)"/>
<path d="M0 0 C0 44.88 0 89.76 0 136 C-44.88 136 -89.76 136 -136 136 C-129.25025692 128.12529974 -129.25025692 128.12529974 -125.90882874 124.79530334 C-125.153423 124.03996811 -124.39801727 123.28463287 -123.61972046 122.50640869 C-122.40622421 121.30066193 -122.40622421 121.30066193 -121.16821289 120.07055664 C-120.30075943 119.20456345 -119.43330597 118.33857025 -118.53956604 117.44633484 C-116.66479595 115.57535589 -114.78915537 113.70530247 -112.91194344 111.83677864 C-109.93691492 108.87537582 -106.96579663 105.91007016 -103.995224 102.94419861 C-97.15226485 96.11323719 -90.30429067 89.28731059 -83.45624542 82.46144867 C-77.1779362 76.20337694 -70.90072104 69.94421787 -64.62756342 63.68098158 C-61.6813349 60.7397016 -58.73269404 57.80086918 -55.78211033 54.86395848 C-53.50646142 52.59759519 -51.23410068 50.32793843 -48.96118164 48.05883789 C-48.15420837 47.25703094 -47.34723511 46.455224 -46.51580811 45.62911987 C-42.36758124 41.48127869 -38.37819535 37.26011728 -34.56861496 32.79811764 C-31.72539652 29.5389104 -28.65993536 26.49731373 -25.60546875 23.4375 C-24.59532463 22.42236328 -24.59532463 22.42236328 -23.56477356 21.38671875 C-22.15687137 19.97379816 -20.74765282 18.56218809 -19.3371582 17.15185547 C-17.17045232 14.9829349 -15.01190348 12.80610093 -12.85351562 10.62890625 C-11.47965519 9.25211651 -10.10532344 7.87579688 -8.73046875 6.5 C-7.76176094 5.52051392 -7.76176094 5.52051392 -6.77348328 4.52124023 C-6.17558487 3.92641846 -5.57768646 3.33159668 -4.96166992 2.71875 C-4.43651291 2.19216797 -3.9113559 1.66558594 -3.37028503 1.12304688 C-2 0 -2 0 0 0 Z " fill="#A41B37" transform="translate(145,164)"/>
</svg>
